<?xml version="1.0" standalone="no"?>
<!DOCTYPE svg PUBLIC "-//W3C//DTD SVG 20010904//EN"
 "http://www.w3.org/TR/2001/REC-SVG-20010904/DTD/svg10.dtd">
<svg version="1.0" xmlns="http://www.w3.org/2000/svg"
 width="100.000000pt" height="50.000000pt" viewBox="0 0 100.000000 50.000000"
 preserveAspectRatio="xMidYMid meet">
<metadata>
Created by potrace 1.16, written by Peter Selinger 2001-2019
</metadata>
<g transform="translate(0.000000,50.000000) scale(0.011236,-0.009766)"
fill="#000000" stroke="none">
<path d="M3892 4592 c-23 -7 -23 -9 -29 -212 -13 -412 -3 -539 58 -723 70
-209 189 -393 387 -599 102 -105 117 -117 123 -99 5 11 13 87 20 168 22 289
-17 543 -115 736 -19 38 -28 63 -21 57 25 -21 133 -252 154 -330 36 -132 53
-260 60 -442 l6 -177 42 57 c103 138 163 299 185 493 35 320 -88 651 -327 877
-89 85 -219 160 -325 187 -56 15 -176 18 -218 7z"/>
<path d="M5365 3623 c-106 -15 -250 -71 -342 -134 -122 -83 -232 -215 -282
-337 -34 -81 -64 -208 -59 -246 3 -28 -3 -33 208 168 78 75 143 122 219 161
59 29 171 69 171 61 0 -2 -33 -20 -74 -39 -109 -52 -191 -110 -281 -201 -91
-92 -219 -259 -203 -265 17 -6 227 19 330 40 228 45 416 154 562 325 198 231
236 278 236 295 0 27 -72 94 -135 124 -85 42 -240 63 -350 48z"/>
<path d="M3205 3590 c-59 -13 -124 -38 -171 -65 -53 -31 -108 -93 -96 -108 99
-130 269 -330 316 -373 125 -114 268 -190 443 -235 87 -22 359 -56 369 -46 8
8 -65 110 -149 208 -80 93 -181 176 -284 235 -88 50 -89 55 -3 20 130 -53 287
-175 417 -324 l66 -76 -7 73 c-15 169 -95 329 -231 467 -80 81 -103 97 -195
142 -58 28 -134 58 -170 67 -77 19 -248 28 -305 15z"/>
<path d="M4465 2918 c-3 -18 -10 -73 -15 -122 -5 -49 -12 -91 -14 -93 -3 -3
-51 -9 -108 -14 l-103 -8 -72 74 c-40 41 -74 71 -77 67 -2 -4 16 -38 41 -75
25 -38 43 -70 41 -71 -1 -2 -50 -17 -107 -35 -393 -123 -666 -366 -832 -740
l-38 -86 77 -12 c137 -21 146 -19 167 27 24 53 93 115 163 148 50 23 73 27
180 30 170 6 361 -13 522 -50 198 -46 258 -43 435 16 187 62 290 80 430 73
138 -7 236 -37 363 -111 50 -30 92 -53 92 -50 0 16 -88 175 -138 250 -178 263
-420 432 -746 519 -49 14 -90 26 -93 28 -6 7 18 57 49 104 15 23 28 46 28 52
0 27 -25 5 -78 -69 -61 -85 -69 -91 -100 -83 -27 7 -32 29 -32 156 0 87 -3
107 -15 107 -8 0 -16 -13 -20 -32z"/>
</g>
</svg>
